<svg id="Layer_1" data-name="Layer 1" xmlns="http://www.w3.org/2000/svg" viewBox="0 0 90 90">
  <defs>
    <style>
      .cls-1 {
        fill: #fff;
      }
    </style>
  </defs>
  <title>genesis_iso_square_white</title>
  <g>
    <path class="cls-1" d="M7.19,42.14,44.8,75.23,53.86,67s-2.56-12.61-16-20.88C24.71,38,7.19,42.14,7.19,42.14Z"/>
    <path class="cls-1" d="M56.62,65.18,82.81,43.32S77.5,39.78,64.1,41.75a31.12,31.12,0,0,0-16.93,8.47C47.36,50,54.26,55.73,56.62,65.18Z"/>
    <polygon class="cls-1" points="54.85 39.78 68.44 29.34 72.57 32.88 56.03 41.35 54.85 39.78"/>
    <polygon class="cls-1" points="52.68 38.01 50.91 37.02 59.77 21.86 62.92 24.61 52.68 38.01"/>
    <polygon class="cls-1" points="46.77 10.83 53.47 16.54 48.15 36.43 45.59 36.04 46.77 10.83"/>
    <polygon class="cls-1" points="39.48 13.78 43.42 36.43 41.06 36.63 34.76 18.11 39.48 13.78"/>
    <polygon class="cls-1" points="29.24 22.84 25.7 25.99 36.73 38.79 38.89 37.41 29.24 22.84"/>
    <polygon class="cls-1" points="20.97 30.13 16.64 33.87 33.58 42.14 35.15 39.98 20.97 30.13"/>
  </g>
</svg>
