<svg id="Capa_1_copia" data-name="Capa 1 copia" xmlns="http://www.w3.org/2000/svg" viewBox="0 0 165.1 46.5">
  <defs>
    <style>
      .cls-1 {
        fill: #2a3180;
      }

      .cls-2 {
        fill: #fff;
      }
    </style>
  </defs>
  <title>genesis_logo_blue_full</title>
  <g>
    <g>
      <path class="cls-1" d="M69.6,12.5h-1a7.17,7.17,0,0,0-.1-1.3c0-.4-.1-.7-.1-1-.2-.2-.4-.5-.6-.6a5.57,5.57,0,0,0-1.9-.9,8.75,8.75,0,0,0-2.4-.3,6.28,6.28,0,0,0-5,2.1,8.12,8.12,0,0,0-1.9,5.8,9.8,9.8,0,0,0,2,6.4,6,6,0,0,0,4.9,2.4,7.77,7.77,0,0,0,1.6-.2,6.39,6.39,0,0,0,1.6-.6,9.51,9.51,0,0,1,.1-1.4V21.6a4.2,4.2,0,0,0-.1-1.5c0-.1-.2-.2-.3-.2a14.26,14.26,0,0,0-2.4-.3V18.5l3.7.1,3.8-.1v.9a1.25,1.25,0,0,0-.9.5c-.1.1-.1.3-.1.7,0,1-.1,1.8-.1,2.2a14.77,14.77,0,0,0,.1,2.1,36.24,36.24,0,0,1-4,1.3,13.93,13.93,0,0,1-3.5.4,11.46,11.46,0,0,1-5-1,8.32,8.32,0,0,1-2.6-1.9,7.58,7.58,0,0,1-1.6-2.5,11.44,11.44,0,0,1-.9-4.6,10.25,10.25,0,0,1,.6-3.7,8.54,8.54,0,0,1,1.6-2.8,8.76,8.76,0,0,1,2.4-1.9,9.61,9.61,0,0,1,2.8-1.1,15.82,15.82,0,0,1,3.2-.3,17.52,17.52,0,0,1,4,.4,20.48,20.48,0,0,1,2.9.9l.1.3C70,9.1,69.8,10.5,69.6,12.5Z"/>
      <path class="cls-1" d="M74.2,26v-.7a6.22,6.22,0,0,0,1.2-.8,9.23,9.23,0,0,0,.1-1.9c.1-1.6.1-2.7.1-3.4V10.5a6.05,6.05,0,0,0-.2-1.9.22.22,0,0,0-.2-.2,5.25,5.25,0,0,0-1.8-.2V7l2.9.1h5.4L84.3,7a15.26,15.26,0,0,1,1.8.1.76.76,0,0,1,.4.1l.1.2-.2,2c0,.1-.1.8-.1,2h-1c0-1.1-.1-1.7-.1-2,0-.1-.1-.2-.1-.3a1.6,1.6,0,0,0-1-.2,19.42,19.42,0,0,0-2.4-.2,18.48,18.48,0,0,0-2.3.1,38.44,38.44,0,0,0-.2,3.9v2.8c.6,0,1.2.1,1.8.1.2,0,.9,0,2.1-.1.5,0,.7,0,.8-.1s.1-.2.2-.3a5.94,5.94,0,0,0,.2-1.7h1l-.1,3,.1,3H84.2c0-1,0-1.7-.2-1.9a.55.55,0,0,0-.5-.3,12.73,12.73,0,0,0-2.2-.2,11.52,11.52,0,0,0-2,.1v7.5a17.72,17.72,0,0,0,2.4.1,20.08,20.08,0,0,0,2.5-.1,5,5,0,0,0,1.4-.3c.1,0,.1-.1.2-.2a13.11,13.11,0,0,0,.5-2.5h1A42.08,42.08,0,0,0,87,26l-.2.2a8.24,8.24,0,0,0-2.4-.2H78.3C78.1,25.9,76.7,26,74.2,26Z"/>
      <path class="cls-1" d="M89.2,26V24.9a4.52,4.52,0,0,0,1.7-.2.22.22,0,0,0,.2-.2c.1-.1.1-.3.2-.5s.1-1.2.2-2.5c0-.7.1-1.7.1-2.9V14.2l-.1-3.9A3.81,3.81,0,0,0,91.4,9a.52.52,0,0,0-.2-.4.52.52,0,0,0-.4-.2c-.2,0-.7-.1-1.6-.2V7a23,23,0,0,0,2.3.1h2.9c1.7,2.4,3.8,5.2,6.2,8.4,1.8,2.3,3.2,4.1,4.4,5.4V17.8c0-4.9-.1-7.7-.1-8.6,0-.3-.1-.6-.2-.6-.2-.2-.8-.3-2-.3V7c1,.1,2,.1,2.8.1s1.9,0,3.2-.1V8.1a5.25,5.25,0,0,0-1.8.2c-.1,0-.1.1-.1.2a17.58,17.58,0,0,0-.2,3.1v3.6c0,6,0,9.7.2,10.9l-.2.1a15.52,15.52,0,0,1-2.1-.4q-4.05-4.95-11.4-14.7v6.8c0,1.4,0,2.9.1,4.4a5.57,5.57,0,0,0,.2,1.9c0,.1.1.2.2.3s.2.1.4.1a6.25,6.25,0,0,0,1.2.1h.2V26H92.7C91.7,25.9,90.6,26,89.2,26Z"/>
      <path class="cls-1" d="M111.1,26v-.7a6.22,6.22,0,0,0,1.2-.8c0-.4.1-1,.1-1.9.1-1.6.1-2.7.1-3.4V10.5a6.05,6.05,0,0,0-.2-1.9.22.22,0,0,0-.2-.2,5.25,5.25,0,0,0-1.8-.2V7l2.9.1h5.5l2.5-.1a15.26,15.26,0,0,1,1.8.1.76.76,0,0,1,.4.1l.1.2-.2,2c0,.1-.1.8-.1,2h-1c0-1.1-.1-1.7-.1-2,0-.1-.1-.2-.2-.3a1.6,1.6,0,0,0-1-.2,19.42,19.42,0,0,0-2.4-.2,18.48,18.48,0,0,0-2.3.1,38.44,38.44,0,0,0-.2,3.9v2.8c.6,0,1.2.1,1.8.1.2,0,.9,0,2.1-.1.4,0,.7,0,.8-.1s.2-.2.2-.3a5.94,5.94,0,0,0,.2-1.7h1v6H121a6.05,6.05,0,0,0-.2-1.9.55.55,0,0,0-.5-.3,12.73,12.73,0,0,0-2.2-.2,11.52,11.52,0,0,0-2,.1v7.5a17.72,17.72,0,0,0,2.4.1,20.08,20.08,0,0,0,2.5-.1,5,5,0,0,0,1.4-.3c.1,0,.1-.1.2-.2a13.11,13.11,0,0,0,.5-2.5h1a42.08,42.08,0,0,0-.3,4.4l-.2.2a14.17,14.17,0,0,1-2.3.1h-6.1C115,25.9,113.6,26,111.1,26Z"/>
      <path class="cls-1" d="M138,12h-1c0-1-.1-1.8-.1-2.2a3.61,3.61,0,0,0-1.3-1.1,4.65,4.65,0,0,0-2.1-.5,3.57,3.57,0,0,0-2.6.9,2.94,2.94,0,0,0-.9,2.2,3.34,3.34,0,0,0,.3,1.5,1.76,1.76,0,0,0,.8.9,6.45,6.45,0,0,0,1.4.6c.5.1,1.2.2,2,.4a10,10,0,0,0,1.7.3,4.79,4.79,0,0,1,1.6.7,9,9,0,0,1,1,.9,8.1,8.1,0,0,1,.6,1.3,9,9,0,0,1,.2,1.8,6.17,6.17,0,0,1-.7,3.1,4.89,4.89,0,0,1-1.4,1.8,6.28,6.28,0,0,1-1.8,1.2,9.61,9.61,0,0,1-3.6.7,9.6,9.6,0,0,1-5.3-1.4,18.44,18.44,0,0,0,.4-4.7h1a20.93,20.93,0,0,0,.1,2.4,3.89,3.89,0,0,0,1.6,1.5,5.42,5.42,0,0,0,2.5.6,3.64,3.64,0,0,0,2.1-.5,3,3,0,0,0,1.4-1.3,3.42,3.42,0,0,0,.4-1.8,3.34,3.34,0,0,0-.3-1.5,2.84,2.84,0,0,0-.9-1,12,12,0,0,0-2.2-.8c-1.5-.3-2.5-.6-3-.7a4,4,0,0,1-1.7-1,4.35,4.35,0,0,1-1-1.6,6.45,6.45,0,0,1-.3-2,6.71,6.71,0,0,1,.6-2.8,5.27,5.27,0,0,1,1.5-2,5.54,5.54,0,0,1,2.2-1,10.07,10.07,0,0,1,2.5-.3,22.75,22.75,0,0,1,2.6.2,8.26,8.26,0,0,1,2.2.8l.1.3c-.1.6-.2,1.2-.3,1.7A8.75,8.75,0,0,0,138,12Z"/>
      <path class="cls-1" d="M149.9,7V8.2c-.8,0-1.3.1-1.5.1a.44.44,0,0,0-.3.1c-.1.1-.1.1-.1.2a2,2,0,0,0-.1.9v1.3c0,2.2-.1,3.4-.1,3.6v8.1a7.67,7.67,0,0,0,.1,1.8c0,.1.1.2.2.3s.2.1.4.2.7.1,1.5.1V26c-1.4,0-2.8-.1-4.3-.1-1.3,0-2.5,0-3.6.1V24.8a11.93,11.93,0,0,0,1.5-.1c.2,0,.3-.1.4-.1s.1-.1.1-.2a8.87,8.87,0,0,0,.1-1.3c.1-1.1.1-2.1.1-3V10.9a8.82,8.82,0,0,0-.2-2.2c0-.1-.1-.2-.1-.3s-.2-.1-.3-.2a14.78,14.78,0,0,0-1.6-.1V7c1.1.1,2.3.1,3.6.1S148.5,7.1,149.9,7Z"/>
      <path class="cls-1" d="M163.6,12h-1c0-1-.1-1.8-.1-2.2a3.61,3.61,0,0,0-1.3-1.1,5,5,0,0,0-2.1-.5,3.57,3.57,0,0,0-2.6.9,2.94,2.94,0,0,0-.9,2.2,3.34,3.34,0,0,0,.3,1.5,2.18,2.18,0,0,0,.7.9,6.45,6.45,0,0,0,1.4.6c.5.1,1.2.2,2,.4a10,10,0,0,0,1.7.3,4.79,4.79,0,0,1,1.6.7,9,9,0,0,1,1,.9,8.1,8.1,0,0,1,.6,1.3,5,5,0,0,1,.2,1.8,6.17,6.17,0,0,1-.7,3.1,4.89,4.89,0,0,1-1.4,1.8,6.28,6.28,0,0,1-1.8,1.2,9.61,9.61,0,0,1-3.6.7,9.6,9.6,0,0,1-5.3-1.4,18.44,18.44,0,0,0,.4-4.7h1a20.93,20.93,0,0,0,.1,2.4,3.36,3.36,0,0,0,1.6,1.5,5.42,5.42,0,0,0,2.5.6,3.64,3.64,0,0,0,2.1-.5,3,3,0,0,0,1.4-1.3,3.42,3.42,0,0,0,.4-1.8,3.34,3.34,0,0,0-.3-1.5,2.84,2.84,0,0,0-.9-1,12,12,0,0,0-2.2-.8c-1.5-.3-2.5-.6-3-.7a4,4,0,0,1-1.7-1,4.35,4.35,0,0,1-1-1.6,6.45,6.45,0,0,1-.3-2,6.71,6.71,0,0,1,.6-2.8,5.27,5.27,0,0,1,1.5-2,5.54,5.54,0,0,1,2.2-1,10.07,10.07,0,0,1,2.5-.3,22.75,22.75,0,0,1,2.6.2,8.26,8.26,0,0,1,2.2.8l.1.3c-.1.6-.2,1.2-.3,1.7A9,9,0,0,0,163.6,12Z"/>
    </g>
    <g>
      <rect class="cls-1" width="47.3" height="33.2"/>
      <g>
        <path class="cls-2" d="M4.2,16.2,23.3,33l4.6-4.2a17.89,17.89,0,0,0-8.1-10.6C13.1,14.1,4.2,16.2,4.2,16.2Z"/>
        <path class="cls-2" d="M29.3,27.9,42.6,16.8S39.9,15,33.1,16a15.85,15.85,0,0,0-8.6,4.3A13.91,13.91,0,0,1,29.3,27.9Z"/>
        <polygon class="cls-2" points="28.4 15 35.3 9.7 37.4 11.5 29 15.8 28.4 15"/>
        <polygon class="cls-2" points="27.3 14.1 26.4 13.6 30.9 5.9 32.5 7.3 27.3 14.1"/>
        <polygon class="cls-2" points="24.3 0.3 27.7 3.2 25 13.3 23.7 13.1 24.3 0.3"/>
        <polygon class="cls-2" points="20.6 1.8 22.6 13.3 21.4 13.4 18.2 4 20.6 1.8"/>
        <polygon class="cls-2" points="15.4 6.4 13.6 8 19.2 14.5 20.3 13.8 15.4 6.4"/>
        <polygon class="cls-2" points="11.2 10.1 9 12 17.6 16.2 18.4 15.1 11.2 10.1"/>
      </g>
    </g>
    <g>
      <path class="cls-1" d="M4,39.9c.2-.6.4-1.1.6-1.7.2.5.4,1.1.7,1.9l1,2.5H2.9ZM1.4,46.2l1.1-2.7H6.7l1.1,2.7H9.3L5.2,37.3H3.8L0,46.2Z"/>
      <path class="cls-1" d="M11.6,41a1.93,1.93,0,0,1,2.8,0,2.71,2.71,0,0,1,.6,1.9,2.44,2.44,0,0,1-.6,1.8,1.82,1.82,0,0,1-1.4.6,2,2,0,0,1-1.4-.6,2.55,2.55,0,0,1-.6-1.9A2.61,2.61,0,0,1,11.6,41ZM16,46.2V37.3H14.8v3.2a1.56,1.56,0,0,0-.8-.6,2.17,2.17,0,0,0-1.2-.2,2.93,2.93,0,0,0-1.6.4,3.18,3.18,0,0,0-1.1,1.2,4.78,4.78,0,0,0-.4,1.8,3.42,3.42,0,0,0,.4,1.8,3.18,3.18,0,0,0,1.1,1.2,2.93,2.93,0,0,0,1.6.4,2.12,2.12,0,0,0,2-1v.8H16Z"/>
      <path class="cls-1" d="M17.9,46.2V39.7H19v.9a2.36,2.36,0,0,1,.9-.8,2.77,2.77,0,0,1,1.3-.3,2.5,2.5,0,0,1,1.3.3,1.78,1.78,0,0,1,.7.8,2.53,2.53,0,0,1,2.2-1.1,2.86,2.86,0,0,1,1.7.5,2.11,2.11,0,0,1,.6,1.6V46H26.5V41.9a2,2,0,0,0-.1-.9,1.76,1.76,0,0,0-.4-.5,1.85,1.85,0,0,0-.7-.2,1.66,1.66,0,0,0-1.3.5,2.07,2.07,0,0,0-.5,1.5v3.8H22.3V42a1.61,1.61,0,0,0-.3-1.1,1.33,1.33,0,0,0-1-.4,2.39,2.39,0,0,0-.9.2,1.34,1.34,0,0,0-.6.7,4.64,4.64,0,0,0-.2,1.4v3.4Z"/>
      <path class="cls-1" d="M29.5,38.5V37.3h1.2v1.2Zm0,7.7V39.7h1.2v6.5Z"/>
      <path class="cls-1" d="M32.6,46.2V39.7h1.1v.9A2.71,2.71,0,0,1,36,39.5a5,5,0,0,1,1.2.2,1.58,1.58,0,0,1,.8.5,2,2,0,0,1,.4.8c0,.2.1.6.1,1.1v4H37.3V42.2a2.79,2.79,0,0,0-.1-1,1.21,1.21,0,0,0-.5-.5,1.88,1.88,0,0,0-.8-.2,1.84,1.84,0,0,0-1.3.4,2.06,2.06,0,0,0-.6,1.7v3.5H32.6Z"/>
      <path class="cls-1" d="M40.3,38.5V37.3h1.2v1.2Zm0,7.7V39.7h1.2v6.5Z"/>
      <path class="cls-1" d="M42.9,44.2l1.2-.2a1.7,1.7,0,0,0,.6,1,2.27,2.27,0,0,0,1.3.3,1.74,1.74,0,0,0,1.2-.3.75.75,0,0,0,.4-.7.72.72,0,0,0-.4-.6,11.06,11.06,0,0,0-1.3-.4c-.9-.2-1.5-.4-1.9-.5a2.41,2.41,0,0,1-.8-.6,1.61,1.61,0,0,1-.3-.9,1.88,1.88,0,0,1,.2-.8,1.7,1.7,0,0,1,.6-.6,3.39,3.39,0,0,1,.8-.3,3.75,3.75,0,0,1,1.1-.1,6.05,6.05,0,0,1,1.5.2,1.46,1.46,0,0,1,.9.6,2.32,2.32,0,0,1,.4,1l-1.2.1a1.37,1.37,0,0,0-.5-.8,1.8,1.8,0,0,0-1.1-.3,2.87,2.87,0,0,0-1.2.2c-.2.2-.4.4-.4.6a.6.6,0,0,0,.1.4,2.19,2.19,0,0,0,.5.3,6.2,6.2,0,0,1,1.1.3,17.06,17.06,0,0,1,1.8.5,1.56,1.56,0,0,1,.8.6,1.61,1.61,0,0,1,.3.9,1.28,1.28,0,0,1-.4,1,1.83,1.83,0,0,1-1,.7,4,4,0,0,1-1.5.3,4.06,4.06,0,0,1-2.1-.5A3.53,3.53,0,0,1,42.9,44.2Z"/>
      <path class="cls-1" d="M53,45.2l.2,1a2.77,2.77,0,0,1-.9.1,2.51,2.51,0,0,1-1-.2,1.21,1.21,0,0,1-.5-.5,3.09,3.09,0,0,1-.2-1.3V40.6h-.9v-.9h.9V38.1l1.2-.7v2.3H53v.9H51.8v3.8c0,.3,0,.5.1.6a.22.22,0,0,0,.2.2c.1.1.2.1.4.1A.75.75,0,0,1,53,45.2Z"/>
      <path class="cls-1" d="M54.2,46.2V39.7h1.1v1c.3-.5.5-.8.8-.9a1.88,1.88,0,0,1,.8-.2,2.42,2.42,0,0,1,1.3.4l-.4,1a1.49,1.49,0,0,0-.9-.2,1.45,1.45,0,0,0-.7.2.68.68,0,0,0-.4.6,5.07,5.07,0,0,0-.2,1.3v3.4H54.2Z"/>
      <path class="cls-1" d="M63.5,43.3a3.09,3.09,0,0,1-.2,1.1,2,2,0,0,1-.8.8,2.77,2.77,0,0,1-1.3.3,1.8,1.8,0,0,1-1.1-.3,1,1,0,0,1-.4-.7.76.76,0,0,1,.2-.5,1,1,0,0,1,.5-.4,2.68,2.68,0,0,1,1.1-.2,17.32,17.32,0,0,0,2-.4Zm.3,2.9H65a1.33,1.33,0,0,1-.3-.8c0-.3-.1-.9-.1-1.9V42a2.51,2.51,0,0,0-.1-1,1.61,1.61,0,0,0-.4-.7,2.18,2.18,0,0,0-.8-.5,6.05,6.05,0,0,0-1.5-.2,7,7,0,0,0-1.6.2,3,3,0,0,0-1.1.7,3.7,3.7,0,0,0-.5,1.1l1.2.1a1.44,1.44,0,0,1,.6-1,2.27,2.27,0,0,1,1.3-.3,2,2,0,0,1,1.4.4,1.22,1.22,0,0,1,.3.9V42a18.14,18.14,0,0,1-2.2.4c-.5.1-.8.1-1.1.2a3.55,3.55,0,0,0-.9.4,1.7,1.7,0,0,0-.6.6,1.49,1.49,0,0,0-.2.9,1.61,1.61,0,0,0,.6,1.3,3,3,0,0,0,1.8.5,5.07,5.07,0,0,0,1.3-.2,5.62,5.62,0,0,0,1.3-.7A3,3,0,0,1,63.8,46.2Z"/>
      <path class="cls-1" d="M67.9,41a1.93,1.93,0,0,1,2.8,0,2.71,2.71,0,0,1,.6,1.9,2.44,2.44,0,0,1-.6,1.8,1.82,1.82,0,0,1-1.4.6,2,2,0,0,1-1.4-.6,2.55,2.55,0,0,1-.6-1.9A4.24,4.24,0,0,1,67.9,41Zm4.5,5.2V37.3H71.2v3.2a1.56,1.56,0,0,0-.8-.6,2.17,2.17,0,0,0-1.2-.2,2.93,2.93,0,0,0-1.6.4,3.18,3.18,0,0,0-1.1,1.2,4.78,4.78,0,0,0-.4,1.8,3.42,3.42,0,0,0,.4,1.8,3.18,3.18,0,0,0,1.1,1.2,2.93,2.93,0,0,0,1.6.4,2.12,2.12,0,0,0,2-1v.8h1.2Z"/>
      <path class="cls-1" d="M75.7,41.1a2.17,2.17,0,0,1,3,0,2.44,2.44,0,0,1,.6,1.8,2.71,2.71,0,0,1-.6,1.9,2.18,2.18,0,0,1-3,0,2.55,2.55,0,0,1-.6-1.9A2.44,2.44,0,0,1,75.7,41.1Zm-.9,4.3a3.24,3.24,0,0,0,2.4.9,3.29,3.29,0,0,0,1.7-.4,3.18,3.18,0,0,0,1.2-1.1,3.74,3.74,0,0,0,.4-2,3.1,3.1,0,0,0-3.3-3.3,3.69,3.69,0,0,0-2.3.7,3.39,3.39,0,0,0-1.1,2.7A3.82,3.82,0,0,0,74.8,45.4Z"/>
      <path class="cls-1" d="M82,46.2V39.7h1.1v1c.3-.5.5-.8.8-.9a1.88,1.88,0,0,1,.8-.2A2.42,2.42,0,0,1,86,40l-.4,1a1.49,1.49,0,0,0-.9-.2,1.45,1.45,0,0,0-.7.2.68.68,0,0,0-.4.6,5.07,5.07,0,0,0-.2,1.3v3.4H82Z"/>
      <path class="cls-1" d="M91.3,43.3a3.09,3.09,0,0,1-.2,1.1,2,2,0,0,1-.8.8,2.77,2.77,0,0,1-1.3.3,1.8,1.8,0,0,1-1.1-.3,1,1,0,0,1-.4-.7.76.76,0,0,1,.2-.5,1,1,0,0,1,.5-.4,2.68,2.68,0,0,1,1.1-.2,17.32,17.32,0,0,0,2-.4Zm.3,2.9h1.3c-.1-.3-.3-.5-.3-.8a8.2,8.2,0,0,1-.1-1.9V42a2.51,2.51,0,0,0-.1-1,1.61,1.61,0,0,0-.4-.7,2.18,2.18,0,0,0-.8-.5,6.05,6.05,0,0,0-1.5-.2,7,7,0,0,0-1.6.2,3,3,0,0,0-1.1.7,3.7,3.7,0,0,0-.5,1.1l1.2.1a1.44,1.44,0,0,1,.6-1,2.27,2.27,0,0,1,1.3-.3,2,2,0,0,1,1.4.4,1.27,1.27,0,0,1,.4.9V42a18.14,18.14,0,0,1-2.2.4c-.5.1-.8.1-1.1.2a3.55,3.55,0,0,0-.9.4,1.7,1.7,0,0,0-.6.6,1.49,1.49,0,0,0-.2.9,1.61,1.61,0,0,0,.6,1.3,3,3,0,0,0,1.8.5,5.07,5.07,0,0,0,1.3-.2,5.62,5.62,0,0,0,1.3-.7A2.35,2.35,0,0,0,91.6,46.2Z"/>
      <path class="cls-1" d="M99.6,41a1.93,1.93,0,0,1,2.8,0,2.71,2.71,0,0,1,.6,1.9,2.44,2.44,0,0,1-.6,1.8,1.82,1.82,0,0,1-1.4.6,2,2,0,0,1-1.4-.6,2.55,2.55,0,0,1-.6-1.9A3.22,3.22,0,0,1,99.6,41Zm4.4,5.2V37.3h-1.2v3.2a1.56,1.56,0,0,0-.8-.6,2.17,2.17,0,0,0-1.2-.2,2.93,2.93,0,0,0-1.6.4,3.18,3.18,0,0,0-1.1,1.2,4.78,4.78,0,0,0-.4,1.8,3.42,3.42,0,0,0,.4,1.8,3.18,3.18,0,0,0,1.1,1.2,2.93,2.93,0,0,0,1.6.4,2.12,2.12,0,0,0,2-1v.8H104Z"/>
      <path class="cls-1" d="M107.5,41a2.39,2.39,0,0,1,1.4-.5,2,2,0,0,1,1.5.6,2.2,2.2,0,0,1,.5,1.2h-4A1.49,1.49,0,0,1,107.5,41Zm2.7,4.1a2.17,2.17,0,0,1-2.6-.3,2.64,2.64,0,0,1-.7-1.6h5.4v-.3a3.33,3.33,0,0,0-.9-2.5,3.65,3.65,0,0,0-4.8,0,3.33,3.33,0,0,0-.9,2.5,3.33,3.33,0,0,0,.9,2.5,3.49,3.49,0,0,0,2.5.9,4.65,4.65,0,0,0,2.1-.5,3.27,3.27,0,0,0,1.1-1.5l-1.3-.1A7.27,7.27,0,0,1,110.2,45.1Z"/>
      <path class="cls-1" d="M117.8,46.2V37.3h6.7v1.1h-5.4V41h4.7v1.1h-4.7v4.1Z"/>
      <path class="cls-1" d="M127.5,41.1a2.17,2.17,0,0,1,3,0,2.44,2.44,0,0,1,.6,1.8,2.71,2.71,0,0,1-.6,1.9,2.18,2.18,0,0,1-3,0,2.55,2.55,0,0,1-.6-1.9A2.44,2.44,0,0,1,127.5,41.1Zm-1,4.3a3.24,3.24,0,0,0,2.4.9,3.29,3.29,0,0,0,1.7-.4,3.18,3.18,0,0,0,1.2-1.1,3.74,3.74,0,0,0,.4-2,3.1,3.1,0,0,0-3.3-3.3,3.69,3.69,0,0,0-2.3.7,3.39,3.39,0,0,0-1.1,2.7A3.82,3.82,0,0,0,126.5,45.4Z"/>
      <path class="cls-1" d="M133.8,46.2V39.7h1.1v.9a2.71,2.71,0,0,1,2.3-1.1,5,5,0,0,1,1.2.2,1.58,1.58,0,0,1,.8.5,2,2,0,0,1,.4.8c0,.2.1.6.1,1.1v4h-1.2V42.2a2.79,2.79,0,0,0-.1-1,1.21,1.21,0,0,0-.5-.5,1.88,1.88,0,0,0-.8-.2,1.84,1.84,0,0,0-1.3.4,2.06,2.06,0,0,0-.6,1.7v3.5h-1.4Z"/>
      <path class="cls-1" d="M142.9,41a1.93,1.93,0,0,1,2.8,0,2.71,2.71,0,0,1,.6,1.9,2.44,2.44,0,0,1-.6,1.8,1.82,1.82,0,0,1-1.4.6,2,2,0,0,1-1.4-.6,2.55,2.55,0,0,1-.6-1.9A2.61,2.61,0,0,1,142.9,41Zm4.4,5.2V37.3h-1.2v3.2a1.56,1.56,0,0,0-.8-.6,2.17,2.17,0,0,0-1.2-.2,2.93,2.93,0,0,0-1.6.4,3.18,3.18,0,0,0-1.1,1.2,4.78,4.78,0,0,0-.4,1.8,3.42,3.42,0,0,0,.4,1.8,3.18,3.18,0,0,0,1.1,1.2,2.93,2.93,0,0,0,1.6.4,2.12,2.12,0,0,0,2-1v.8h1.2Z"/>
      <path class="cls-1" d="M150.7,41.1a2.17,2.17,0,0,1,3,0,2.44,2.44,0,0,1,.6,1.8,2.71,2.71,0,0,1-.6,1.9,2.18,2.18,0,0,1-3,0,2.55,2.55,0,0,1-.6-1.9A2.1,2.1,0,0,1,150.7,41.1Zm-1,4.3a3.24,3.24,0,0,0,2.4.9,3.29,3.29,0,0,0,1.7-.4,3.18,3.18,0,0,0,1.2-1.1,3.74,3.74,0,0,0,.4-2,3.1,3.1,0,0,0-3.3-3.3,3.69,3.69,0,0,0-2.3.7,3.39,3.39,0,0,0-1.1,2.7A3.82,3.82,0,0,0,149.7,45.4Z"/>
      <path class="cls-1" d="M156.5,44.2l1.2-.2a1.7,1.7,0,0,0,.6,1,2.27,2.27,0,0,0,1.3.3,1.74,1.74,0,0,0,1.2-.3.75.75,0,0,0,.4-.7.72.72,0,0,0-.4-.6c-.2-.1-.6-.2-1.2-.4-.9-.2-1.5-.4-1.9-.5a2.41,2.41,0,0,1-.8-.6,1.61,1.61,0,0,1-.3-.9,1.88,1.88,0,0,1,.2-.8,1.7,1.7,0,0,1,.6-.6,3.39,3.39,0,0,1,.8-.3,3.75,3.75,0,0,1,1.1-.1,6.05,6.05,0,0,1,1.5.2,1.46,1.46,0,0,1,.9.6,2.32,2.32,0,0,1,.4,1l-1.2.1a1.37,1.37,0,0,0-.5-.8,1.8,1.8,0,0,0-1.1-.3,2.87,2.87,0,0,0-1.2.2c-.2.2-.4.4-.4.6a.4.4,0,0,0,.2.4,2.19,2.19,0,0,0,.5.3,6.2,6.2,0,0,1,1.1.3,17.06,17.06,0,0,1,1.8.5,1.56,1.56,0,0,1,.8.6,1.61,1.61,0,0,1,.3.9,1.28,1.28,0,0,1-.4,1,1.83,1.83,0,0,1-1,.7,4,4,0,0,1-1.5.3,4.06,4.06,0,0,1-2.1-.5A1.62,1.62,0,0,1,156.5,44.2Z"/>
    </g>
  </g>
</svg>
