<?xml version="1.0" encoding="utf-8"?>
<!-- Generator: Adobe Illustrator 19.2.0, SVG Export Plug-In . SVG Version: 6.00 Build 0)  -->
<svg version="1.1" id="Capa_1_copia" xmlns="http://www.w3.org/2000/svg" xmlns:xlink="http://www.w3.org/1999/xlink" x="0px"
	 y="0px" viewBox="0 0 165 46.3" style="enable-background:new 0 0 165 46.3;" xml:space="preserve">
<style type="text/css">
	.st0{fill:#FFFFFF;}
	.st1{fill:#2A3180;}
</style>
<g>
	<g>
		<g>
			<g>
				<g>
					<path class="st0" d="M69.6,12.5h-1c0-0.3,0-0.7-0.1-1.3c0-0.4-0.1-0.7-0.1-1C68.2,10,68,9.7,67.8,9.6c-0.5-0.4-1.2-0.7-1.9-0.9
						c-0.7-0.2-1.5-0.3-2.4-0.3c-2.1,0-3.8,0.7-5,2.1c-1.3,1.4-1.9,3.3-1.9,5.8c0,2.7,0.7,4.8,2,6.4c1.3,1.6,2.9,2.4,4.9,2.4
						c0.6,0,1.1-0.1,1.6-0.2c0.5-0.1,1-0.3,1.6-0.6c0-0.2,0-0.7,0.1-1.4c0-0.7,0-1.1,0-1.3c0-0.9,0-1.4-0.1-1.5
						c0-0.1-0.2-0.2-0.3-0.2c-0.3-0.1-1.1-0.2-2.4-0.3v-1.1l3.7,0.1l3.8-0.1v0.9c-0.5,0.1-0.8,0.3-0.9,0.5c-0.1,0.1-0.1,0.3-0.1,0.7
						c0,1-0.1,1.8-0.1,2.2c0,0.7,0,1.4,0.1,2.1c-1.5,0.6-2.9,1-4,1.3c-1.2,0.3-2.3,0.4-3.5,0.4c-1.9,0-3.5-0.3-5-1
						c-1-0.5-1.9-1.1-2.6-1.9c-0.7-0.8-1.3-1.6-1.6-2.5c-0.6-1.4-0.9-2.9-0.9-4.6c0-1.4,0.2-2.7,0.6-3.7c0.4-1.1,0.9-2,1.6-2.8
						c0.7-0.8,1.5-1.4,2.4-1.9c0.9-0.5,1.8-0.9,2.8-1.1c1-0.2,2-0.3,3.2-0.3c1.4,0,2.7,0.1,4,0.4c1.2,0.3,2.2,0.6,2.9,0.9l0.1,0.3
						C70,9.1,69.8,10.5,69.6,12.5z"/>
					<path class="st0" d="M74.2,26v-0.7c0.5-0.3,0.9-0.5,1.2-0.8c0.1-0.4,0.1-1,0.1-1.9c0.1-1.6,0.1-2.7,0.1-3.4v-6.1
						c0-0.2,0-1.1,0-2.6c0-1-0.1-1.7-0.2-1.9c0-0.1-0.1-0.2-0.2-0.2c-0.2-0.1-0.8-0.2-1.8-0.2V7l2.9,0.1c0.6,0,1.1,0,1.6,0
						c1.1,0,2.4,0,3.8,0L84.3,7c0.3,0,0.9,0,1.8,0.1c0.1,0,0.2,0,0.4,0.1l0.1,0.2l-0.2,2c0,0.1-0.1,0.8-0.1,2h-1
						c0-1.1-0.1-1.7-0.1-2c0-0.1-0.1-0.2-0.1-0.3c-0.1-0.1-0.4-0.2-1-0.2c-0.8-0.1-1.6-0.2-2.4-0.2c-0.7,0-1.5,0-2.3,0.1
						c-0.1,1-0.2,2.3-0.2,3.9v2.8c0.6,0,1.2,0.1,1.8,0.1c0.2,0,0.9,0,2.1-0.1c0.5,0,0.7,0,0.8-0.1c0.1-0.1,0.1-0.2,0.2-0.3
						c0.1-0.3,0.2-0.9,0.2-1.7h1l-0.1,3l0.1,3h-1.1c0-1,0-1.7-0.2-1.9c-0.1-0.2-0.3-0.3-0.5-0.3c-0.6-0.1-1.3-0.2-2.2-0.2
						c-0.8,0-1.5,0-2,0.1v5.8c0,0.6,0,1.2,0,1.7c0.7,0.1,1.5,0.1,2.4,0.1c0.9,0,1.7,0,2.5-0.1c0.8-0.1,1.2-0.2,1.4-0.3
						c0.1,0,0.1-0.1,0.2-0.2c0.2-0.4,0.3-1.3,0.5-2.5h1c-0.2,1.8-0.3,3.3-0.3,4.4l-0.2,0.2C86.2,26,85.4,26,84.4,26l-2,0
						c-2,0-3.4,0-4.1,0C78.1,25.9,76.7,26,74.2,26z"/>
					<path class="st0" d="M89.2,26v-1.1c1,0,1.5-0.1,1.7-0.2c0.1,0,0.2-0.1,0.2-0.2c0.1-0.1,0.1-0.3,0.2-0.5c0-0.3,0.1-1.2,0.2-2.5
						c0-0.7,0.1-1.7,0.1-2.9v-4.4l-0.1-3.9c0-0.7,0-1.1-0.1-1.3c0-0.2-0.1-0.3-0.2-0.4c-0.1-0.1-0.2-0.2-0.4-0.2
						c-0.2,0-0.7-0.1-1.6-0.2V7c1.1,0.1,1.8,0.1,2.3,0.1l1.8,0l1.1,0c1.7,2.4,3.8,5.2,6.2,8.4c1.8,2.3,3.2,4.1,4.4,5.4v-3.1
						c0-4.9-0.1-7.7-0.1-8.6c0-0.3-0.1-0.6-0.2-0.6c-0.2-0.2-0.8-0.3-2-0.3V7c1,0.1,2,0.1,2.8,0.1c0.8,0,1.9,0,3.2-0.1v1.1
						c-1,0-1.6,0.1-1.8,0.2c-0.1,0-0.1,0.1-0.1,0.2c-0.1,0.5-0.2,1.5-0.2,3.1c0,1.6,0,2.8,0,3.6c0,6,0,9.7,0.2,10.9l-0.2,0.1
						c-0.7-0.1-1.4-0.2-2.1-0.4c-2.7-3.3-6.5-8.2-11.4-14.7v6.8c0,1.4,0,2.9,0.1,4.4c0,1.1,0.1,1.7,0.2,1.9c0,0.1,0.1,0.2,0.2,0.3
						c0.1,0.1,0.2,0.1,0.4,0.1c0.6,0.1,0.9,0.1,1.2,0.1c0,0,0.1,0,0.2,0V26c-1.6,0-2.5,0-2.7,0C91.7,25.9,90.6,26,89.2,26z"/>
					<path class="st0" d="M111.1,26v-0.7c0.5-0.3,0.9-0.5,1.2-0.8c0-0.4,0.1-1,0.1-1.9c0.1-1.6,0.1-2.7,0.1-3.4v-6.1
						c0-0.2,0-1.1,0-2.6c0-1-0.1-1.7-0.2-1.9c0-0.1-0.1-0.2-0.2-0.2c-0.2-0.1-0.8-0.2-1.8-0.2V7l2.9,0.1c0.6,0,1.1,0,1.7,0
						c1.1,0,2.4,0,3.8,0l2.5-0.1c0.3,0,0.9,0,1.8,0.1c0.1,0,0.2,0,0.4,0.1l0.1,0.2l-0.2,2c0,0.1-0.1,0.8-0.1,2h-1
						c0-1.1-0.1-1.7-0.1-2c0-0.1-0.1-0.2-0.2-0.3c-0.1-0.1-0.4-0.2-1-0.2c-0.8-0.1-1.6-0.2-2.4-0.2c-0.7,0-1.5,0-2.3,0.1
						c-0.1,1-0.2,2.3-0.2,3.9v2.8c0.6,0,1.2,0.1,1.8,0.1c0.2,0,0.9,0,2.1-0.1c0.4,0,0.7,0,0.8-0.1c0.1-0.1,0.2-0.2,0.2-0.3
						c0.1-0.3,0.2-0.9,0.2-1.7h1l0,3l0,3H121c0-1-0.1-1.7-0.2-1.9c-0.1-0.2-0.3-0.3-0.5-0.3c-0.6-0.1-1.3-0.2-2.2-0.2
						c-0.8,0-1.5,0-2,0.1v5.8c0,0.6,0,1.2,0,1.7c0.7,0.1,1.5,0.1,2.4,0.1c0.9,0,1.7,0,2.5-0.1c0.8-0.1,1.2-0.2,1.4-0.3
						c0.1,0,0.1-0.1,0.2-0.2c0.2-0.4,0.3-1.3,0.5-2.5h1c-0.2,1.8-0.3,3.3-0.3,4.4l-0.2,0.2c-0.5,0.1-1.3,0.1-2.3,0.1l-2,0
						c-2,0-3.3,0-4.1,0C115,25.9,113.6,26,111.1,26z"/>
					<path class="st0" d="M138,12H137c0-1-0.1-1.8-0.1-2.2c-0.3-0.4-0.7-0.8-1.3-1.1c-0.6-0.3-1.3-0.5-2.1-0.5c-1.1,0-2,0.3-2.6,0.9
						c-0.6,0.6-0.9,1.3-0.9,2.2c0,0.6,0.1,1.1,0.3,1.5c0.2,0.4,0.4,0.7,0.8,0.9c0.3,0.2,0.8,0.4,1.4,0.6c0.5,0.1,1.2,0.2,2,0.4
						c0.9,0.2,1.4,0.3,1.7,0.3c0.7,0.2,1.2,0.4,1.6,0.7c0.4,0.3,0.7,0.6,1,0.9c0.2,0.3,0.4,0.8,0.6,1.3c0.1,0.5,0.2,1.1,0.2,1.8
						c0,1.2-0.2,2.2-0.7,3.1c-0.3,0.7-0.8,1.3-1.4,1.8c-0.6,0.5-1.2,1-1.8,1.2c-1,0.4-2.2,0.7-3.6,0.7c-1,0-1.9-0.1-2.7-0.3
						c-0.8-0.2-1.7-0.6-2.6-1.1c0.3-1,0.4-2.6,0.4-4.7h1c0,0.7,0,1.5,0.1,2.4c0.3,0.6,0.9,1.1,1.6,1.5c0.8,0.4,1.6,0.6,2.5,0.6
						c0.8,0,1.5-0.1,2.1-0.5c0.6-0.3,1.1-0.7,1.4-1.3c0.3-0.5,0.4-1.1,0.4-1.8c0-0.6-0.1-1.1-0.3-1.5c-0.2-0.4-0.5-0.7-0.9-1
						c-0.4-0.2-1.1-0.5-2.2-0.8c-1.5-0.3-2.5-0.6-3-0.7c-0.7-0.2-1.3-0.6-1.7-1c-0.4-0.4-0.8-1-1-1.6c-0.2-0.6-0.3-1.3-0.3-2
						c0-1,0.2-1.9,0.6-2.8c0.4-0.9,0.9-1.5,1.5-2c0.6-0.5,1.4-0.8,2.2-1c0.8-0.2,1.6-0.3,2.5-0.3c0.9,0,1.7,0.1,2.6,0.2
						c0.8,0.2,1.5,0.4,2.2,0.8l0.1,0.3c-0.1,0.6-0.2,1.2-0.3,1.7C138.1,10.3,138,11.1,138,12z"/>
					<path class="st0" d="M149.9,7v1.2c-0.8,0-1.3,0.1-1.5,0.1c-0.2,0-0.3,0.1-0.3,0.1c-0.1,0.1-0.1,0.1-0.1,0.2
						c-0.1,0.2-0.1,0.4-0.1,0.9c0,0.2,0,0.7,0,1.3c0,2.2-0.1,3.4-0.1,3.6V20l0,2.5c0,0.9,0,1.5,0.1,1.8c0,0.1,0.1,0.2,0.2,0.3
						c0.1,0.1,0.2,0.1,0.4,0.2c0.2,0,0.7,0.1,1.5,0.1V26c-1.4,0-2.8-0.1-4.3-0.1c-1.3,0-2.5,0-3.6,0.1v-1.2c0.9,0,1.4-0.1,1.5-0.1
						c0.2,0,0.3-0.1,0.4-0.1c0.1-0.1,0.1-0.1,0.1-0.2c0-0.1,0.1-0.5,0.1-1.3c0.1-1.1,0.1-2.1,0.1-3v-5.7c0-1.8,0-3,0-3.5
						c0-1.1-0.1-1.9-0.2-2.2c0-0.1-0.1-0.2-0.1-0.3c-0.1-0.1-0.2-0.1-0.3-0.2c-0.1,0-0.7-0.1-1.6-0.1V7c1.1,0.1,2.3,0.1,3.6,0.1
						C147.1,7.1,148.5,7.1,149.9,7z"/>
					<path class="st0" d="M163.6,12h-1c0-1-0.1-1.8-0.1-2.2c-0.3-0.4-0.7-0.8-1.3-1.1c-0.6-0.3-1.4-0.5-2.1-0.5
						c-1.1,0-2,0.3-2.6,0.9c-0.6,0.6-0.9,1.3-0.9,2.2c0,0.6,0.1,1.1,0.3,1.5c0.2,0.4,0.4,0.7,0.7,0.9c0.3,0.2,0.8,0.4,1.4,0.6
						c0.5,0.1,1.2,0.2,2,0.4c0.9,0.2,1.4,0.3,1.7,0.3c0.7,0.2,1.2,0.4,1.6,0.7c0.4,0.3,0.7,0.6,1,0.9c0.2,0.3,0.4,0.8,0.6,1.3
						c0.2,0.5,0.2,1.1,0.2,1.8c0,1.2-0.2,2.2-0.7,3.1c-0.3,0.7-0.8,1.3-1.4,1.8c-0.6,0.5-1.2,1-1.8,1.2c-1,0.4-2.2,0.7-3.6,0.7
						c-1,0-1.9-0.1-2.7-0.3c-0.8-0.2-1.7-0.6-2.6-1.1c0.3-1,0.4-2.6,0.4-4.7h1c0,0.7,0,1.5,0.1,2.4c0.3,0.6,0.8,1.1,1.6,1.5
						c0.8,0.4,1.6,0.6,2.5,0.6c0.8,0,1.5-0.1,2.1-0.5c0.6-0.3,1.1-0.7,1.4-1.3c0.3-0.5,0.4-1.1,0.4-1.8c0-0.6-0.1-1.1-0.3-1.5
						c-0.2-0.4-0.5-0.7-0.9-1c-0.4-0.2-1.1-0.5-2.2-0.8c-1.5-0.3-2.5-0.6-3-0.7c-0.7-0.2-1.3-0.6-1.7-1c-0.4-0.4-0.8-1-1-1.6
						c-0.2-0.6-0.3-1.3-0.3-2c0-1,0.2-1.9,0.6-2.8c0.4-0.9,0.9-1.5,1.5-2c0.6-0.5,1.4-0.8,2.2-1c0.8-0.2,1.6-0.3,2.5-0.3
						c0.9,0,1.7,0.1,2.6,0.2c0.8,0.2,1.5,0.4,2.2,0.8l0.1,0.3c-0.1,0.6-0.2,1.2-0.3,1.7C163.6,10.3,163.6,11.1,163.6,12z"/>
				</g>
			</g>
		</g>
	</g>
	<g>
		<rect class="st0" width="47.3" height="33.2"/>
		<g>
			<path class="st1" d="M4.2,16.2l19.1,16.8l4.6-4.2c0,0-1.3-6.4-8.1-10.6C13.1,14.1,4.2,16.2,4.2,16.2z"/>
			<path class="st1" d="M29.3,27.9l13.3-11.1c0,0-2.7-1.8-9.5-0.8c-4.4,0.6-7.8,3.4-8.6,4.3C24.6,20.2,28.1,23.1,29.3,27.9z"/>
			<polygon class="st1" points="28.4,15 35.3,9.7 37.4,11.5 29,15.8 			"/>
			<polygon class="st1" points="27.3,14.1 26.4,13.6 30.9,5.9 32.5,7.3 			"/>
			<polygon class="st1" points="24.3,0.3 27.7,3.2 25,13.3 23.7,13.1 			"/>
			<polygon class="st1" points="20.6,1.8 22.6,13.3 21.4,13.4 18.2,4 			"/>
			<polygon class="st1" points="15.4,6.4 13.6,8 19.2,14.5 20.3,13.8 			"/>
			<polygon class="st1" points="11.2,10.1 9,12 17.6,16.2 18.4,15.1 			"/>
		</g>
	</g>
	<g>
		<path class="st0" d="M4,39.9c0.2-0.6,0.4-1.1,0.6-1.7c0.2,0.5,0.4,1.1,0.7,1.9l1,2.5H2.9L4,39.9z M1.4,46.2l1.1-2.7h4.2l1.1,2.7
			h1.5l-4.1-8.9H3.8L0,46.2H1.4z"/>
		<path class="st0" d="M11.6,41c0.4-0.4,0.8-0.6,1.4-0.6c0.6,0,1,0.2,1.4,0.6c0.4,0.4,0.6,1.1,0.6,1.9c0,0.8-0.2,1.4-0.6,1.8
			c-0.4,0.4-0.8,0.6-1.4,0.6c-0.5,0-1-0.2-1.4-0.6c-0.4-0.4-0.6-1-0.6-1.9C11,42.1,11.2,41.4,11.6,41z M16,46.2v-8.9h-1.2v3.2
			c-0.2-0.3-0.5-0.5-0.8-0.6c-0.3-0.2-0.7-0.2-1.2-0.2c-0.6,0-1.1,0.1-1.6,0.4c-0.5,0.3-0.8,0.7-1.1,1.2c-0.2,0.5-0.4,1.1-0.4,1.8
			c0,0.7,0.1,1.3,0.4,1.8c0.3,0.5,0.6,0.9,1.1,1.2c0.5,0.3,1,0.4,1.6,0.4c0.9,0,1.6-0.3,2-1v0.8H16z"/>
		<path class="st0" d="M17.9,46.2v-6.5H19v0.9c0.2-0.3,0.5-0.6,0.9-0.8c0.4-0.2,0.8-0.3,1.3-0.3c0.5,0,1,0.1,1.3,0.3
			c0.3,0.2,0.6,0.5,0.7,0.8c0.6-0.8,1.3-1.1,2.2-1.1c0.7,0,1.3,0.2,1.7,0.5c0.4,0.4,0.6,0.9,0.6,1.6v4.4h-1.2v-4.1
			c0-0.4,0-0.8-0.1-0.9c-0.1-0.2-0.2-0.3-0.4-0.5c-0.2-0.1-0.5-0.2-0.7-0.2c-0.5,0-0.9,0.1-1.3,0.5c-0.3,0.3-0.5,0.8-0.5,1.5v3.8
			h-1.2V42c0-0.5-0.1-0.9-0.3-1.1c-0.2-0.2-0.5-0.4-1-0.4c-0.3,0-0.7,0.1-0.9,0.2c-0.3,0.2-0.5,0.4-0.6,0.7
			c-0.1,0.3-0.2,0.8-0.2,1.4v3.4H17.9z"/>
		<path class="st0" d="M29.5,38.5v-1.2h1.2v1.2H29.5z M29.5,46.2v-6.5h1.2v6.5H29.5z"/>
		<path class="st0" d="M32.6,46.2v-6.5h1.1v0.9c0.5-0.7,1.3-1.1,2.3-1.1c0.4,0,0.8,0.1,1.2,0.2c0.4,0.1,0.6,0.3,0.8,0.5
			c0.2,0.2,0.3,0.5,0.4,0.8c0,0.2,0.1,0.6,0.1,1.1v4h-1.2v-3.9c0-0.4,0-0.8-0.1-1c-0.1-0.2-0.3-0.4-0.5-0.5
			c-0.2-0.1-0.5-0.2-0.8-0.2c-0.5,0-1,0.1-1.3,0.4c-0.4,0.3-0.6,0.9-0.6,1.7v3.5H32.6z"/>
		<path class="st0" d="M40.3,38.5v-1.2h1.2v1.2H40.3z M40.3,46.2v-6.5h1.2v6.5H40.3z"/>
		<path class="st0" d="M42.9,44.2l1.2-0.2c0.1,0.4,0.3,0.8,0.6,1c0.3,0.2,0.7,0.3,1.3,0.3c0.6,0,1-0.1,1.2-0.3
			c0.3-0.2,0.4-0.4,0.4-0.7c0-0.2-0.1-0.4-0.4-0.6c-0.2-0.1-0.6-0.2-1.3-0.4c-0.9-0.2-1.5-0.4-1.9-0.5c-0.3-0.1-0.6-0.4-0.8-0.6
			c-0.2-0.3-0.3-0.6-0.3-0.9c0-0.3,0.1-0.6,0.2-0.8c0.1-0.2,0.3-0.4,0.6-0.6c0.2-0.1,0.4-0.2,0.8-0.3c0.3-0.1,0.7-0.1,1.1-0.1
			c0.6,0,1.1,0.1,1.5,0.2c0.4,0.1,0.7,0.3,0.9,0.6c0.2,0.2,0.3,0.6,0.4,1l-1.2,0.1c-0.1-0.3-0.2-0.6-0.5-0.8
			c-0.3-0.2-0.6-0.3-1.1-0.3c-0.6,0-1,0.1-1.2,0.2c-0.2,0.2-0.4,0.4-0.4,0.6c0,0.1,0,0.3,0.1,0.4c0.1,0.1,0.3,0.2,0.5,0.3
			c0.1,0,0.5,0.1,1.1,0.3c0.9,0.2,1.5,0.4,1.8,0.5c0.3,0.1,0.6,0.3,0.8,0.6c0.2,0.3,0.3,0.6,0.3,0.9c0,0.4-0.1,0.7-0.4,1
			c-0.2,0.3-0.6,0.6-1,0.7c-0.5,0.2-1,0.3-1.5,0.3c-0.9,0-1.6-0.2-2.1-0.5C43.4,45.4,43.1,44.9,42.9,44.2z"/>
		<path class="st0" d="M53,45.2l0.2,1c-0.3,0.1-0.6,0.1-0.9,0.1c-0.4,0-0.8-0.1-1-0.2c-0.2-0.1-0.4-0.3-0.5-0.5
			c-0.1-0.2-0.2-0.6-0.2-1.3v-3.7h-0.9v-0.9h0.9v-1.6l1.2-0.7v2.3H53v0.9h-1.2v3.8c0,0.3,0,0.5,0.1,0.6c0,0.1,0.1,0.2,0.2,0.2
			c0.1,0.1,0.2,0.1,0.4,0.1C52.6,45.2,52.8,45.2,53,45.2z"/>
		<path class="st0" d="M54.2,46.2v-6.5h1.1v1c0.3-0.5,0.5-0.8,0.8-0.9c0.2-0.1,0.5-0.2,0.8-0.2c0.4,0,0.8,0.1,1.3,0.4l-0.4,1
			c-0.3-0.2-0.6-0.2-0.9-0.2c-0.3,0-0.5,0.1-0.7,0.2c-0.2,0.1-0.4,0.3-0.4,0.6c-0.1,0.4-0.2,0.8-0.2,1.3v3.4H54.2z"/>
		<path class="st0" d="M63.5,43.3c0,0.5-0.1,0.8-0.2,1.1c-0.2,0.3-0.4,0.6-0.8,0.8c-0.4,0.2-0.8,0.3-1.3,0.3c-0.5,0-0.8-0.1-1.1-0.3
			c-0.2-0.2-0.4-0.4-0.4-0.7c0-0.2,0.1-0.4,0.2-0.5c0.1-0.2,0.3-0.3,0.5-0.4c0.2-0.1,0.6-0.2,1.1-0.2c0.9-0.1,1.5-0.3,2-0.4
			L63.5,43.3z M63.8,46.2h1.2c-0.2-0.3-0.3-0.5-0.3-0.8c0-0.3-0.1-0.9-0.1-1.9V42c0-0.5,0-0.8-0.1-1c-0.1-0.3-0.2-0.5-0.4-0.7
			c-0.2-0.2-0.5-0.4-0.8-0.5c-0.4-0.1-0.9-0.2-1.5-0.2c-0.6,0-1.2,0.1-1.6,0.2c-0.5,0.2-0.8,0.4-1.1,0.7c-0.2,0.3-0.4,0.7-0.5,1.1
			l1.2,0.1c0.1-0.5,0.3-0.8,0.6-1c0.3-0.2,0.7-0.3,1.3-0.3c0.6,0,1.1,0.1,1.4,0.4c0.2,0.2,0.3,0.5,0.3,0.9c0,0,0,0.1,0,0.3
			c-0.5,0.1-1.2,0.3-2.2,0.4c-0.5,0.1-0.8,0.1-1.1,0.2c-0.3,0.1-0.6,0.2-0.9,0.4c-0.3,0.2-0.5,0.4-0.6,0.6c-0.2,0.3-0.2,0.6-0.2,0.9
			c0,0.5,0.2,1,0.6,1.3c0.4,0.3,1,0.5,1.8,0.5c0.5,0,0.9-0.1,1.3-0.2c0.4-0.1,0.8-0.4,1.3-0.7C63.6,45.7,63.7,45.9,63.8,46.2z"/>
		<path class="st0" d="M67.9,41c0.4-0.4,0.8-0.6,1.4-0.6c0.6,0,1,0.2,1.4,0.6c0.4,0.4,0.6,1.1,0.6,1.9c0,0.8-0.2,1.4-0.6,1.8
			c-0.4,0.4-0.8,0.6-1.4,0.6c-0.5,0-1-0.2-1.4-0.6c-0.4-0.4-0.6-1-0.6-1.9C67.4,42.1,67.6,41.4,67.9,41z M72.4,46.2v-8.9h-1.2v3.2
			c-0.2-0.3-0.5-0.5-0.8-0.6c-0.3-0.2-0.7-0.2-1.2-0.2c-0.6,0-1.1,0.1-1.6,0.4c-0.5,0.3-0.8,0.7-1.1,1.2c-0.2,0.5-0.4,1.1-0.4,1.8
			c0,0.7,0.1,1.3,0.4,1.8c0.3,0.5,0.6,0.9,1.1,1.2c0.5,0.3,1,0.4,1.6,0.4c0.9,0,1.6-0.3,2-1v0.8H72.4z"/>
		<path class="st0" d="M75.7,41.1c0.4-0.4,0.9-0.6,1.5-0.6c0.6,0,1.1,0.2,1.5,0.6c0.4,0.4,0.6,1,0.6,1.8c0,0.8-0.2,1.5-0.6,1.9
			c-0.4,0.4-0.9,0.6-1.5,0.6c-0.6,0-1.1-0.2-1.5-0.6c-0.4-0.4-0.6-1-0.6-1.9C75.1,42.1,75.3,41.5,75.7,41.1z M74.8,45.4
			c0.6,0.6,1.4,0.9,2.4,0.9c0.6,0,1.2-0.1,1.7-0.4c0.5-0.3,0.9-0.6,1.2-1.1c0.3-0.5,0.4-1.1,0.4-2c0-1-0.3-1.8-0.9-2.4
			c-0.6-0.6-1.4-0.9-2.4-0.9c-0.9,0-1.6,0.2-2.3,0.7c-0.7,0.6-1.1,1.5-1.1,2.7C73.9,44,74.2,44.8,74.8,45.4z"/>
		<path class="st0" d="M82,46.2v-6.5h1.1v1c0.3-0.5,0.5-0.8,0.8-0.9c0.2-0.1,0.5-0.2,0.8-0.2c0.4,0,0.8,0.1,1.3,0.4l-0.4,1
			c-0.3-0.2-0.6-0.2-0.9-0.2c-0.3,0-0.5,0.1-0.7,0.2c-0.2,0.1-0.4,0.3-0.4,0.6c-0.1,0.4-0.2,0.8-0.2,1.3v3.4H82z"/>
		<path class="st0" d="M91.3,43.3c0,0.5-0.1,0.8-0.2,1.1c-0.2,0.3-0.4,0.6-0.8,0.8c-0.4,0.2-0.8,0.3-1.3,0.3c-0.5,0-0.8-0.1-1.1-0.3
			c-0.2-0.2-0.4-0.4-0.4-0.7c0-0.2,0.1-0.4,0.2-0.5c0.1-0.2,0.3-0.3,0.5-0.4c0.2-0.1,0.6-0.2,1.1-0.2c0.9-0.1,1.5-0.3,2-0.4
			L91.3,43.3z M91.6,46.2h1.3c-0.1-0.3-0.3-0.5-0.3-0.8c-0.1-0.3-0.1-0.9-0.1-1.9V42c0-0.5,0-0.8-0.1-1c-0.1-0.3-0.2-0.5-0.4-0.7
			c-0.2-0.2-0.5-0.4-0.8-0.5c-0.4-0.1-0.9-0.2-1.5-0.2c-0.6,0-1.2,0.1-1.6,0.2c-0.5,0.2-0.8,0.4-1.1,0.7c-0.2,0.3-0.4,0.7-0.5,1.1
			l1.2,0.1c0.1-0.5,0.3-0.8,0.6-1c0.3-0.2,0.7-0.3,1.3-0.3c0.6,0,1.1,0.1,1.4,0.4c0.2,0.2,0.4,0.5,0.4,0.9c0,0,0,0.1,0,0.3
			c-0.5,0.1-1.2,0.3-2.2,0.4c-0.5,0.1-0.8,0.1-1.1,0.2c-0.3,0.1-0.6,0.2-0.9,0.4c-0.3,0.2-0.5,0.4-0.6,0.6c-0.2,0.3-0.2,0.6-0.2,0.9
			c0,0.5,0.2,1,0.6,1.3c0.4,0.3,1,0.5,1.8,0.5c0.5,0,0.9-0.1,1.3-0.2c0.4-0.1,0.8-0.4,1.3-0.7C91.4,45.7,91.5,45.9,91.6,46.2z"/>
		<path class="st0" d="M99.6,41c0.4-0.4,0.8-0.6,1.4-0.6c0.6,0,1,0.2,1.4,0.6c0.4,0.4,0.6,1.1,0.6,1.9c0,0.8-0.2,1.4-0.6,1.8
			c-0.4,0.4-0.8,0.6-1.4,0.6c-0.5,0-1-0.2-1.4-0.6c-0.4-0.4-0.6-1-0.6-1.9C99.1,42.1,99.2,41.4,99.6,41z M104,46.2v-8.9h-1.2v3.2
			c-0.2-0.3-0.5-0.5-0.8-0.6c-0.3-0.2-0.7-0.2-1.2-0.2c-0.6,0-1.1,0.1-1.6,0.4c-0.5,0.3-0.8,0.7-1.1,1.2c-0.2,0.5-0.4,1.1-0.4,1.8
			c0,0.7,0.1,1.3,0.4,1.8c0.3,0.5,0.6,0.9,1.1,1.2c0.5,0.3,1,0.4,1.6,0.4c0.9,0,1.6-0.3,2-1v0.8H104z"/>
		<path class="st0" d="M107.5,41c0.4-0.3,0.9-0.5,1.4-0.5c0.6,0,1.1,0.2,1.5,0.6c0.3,0.3,0.4,0.7,0.5,1.2h-4
			C106.9,41.7,107.1,41.3,107.5,41z M110.2,45.1c-0.3,0.2-0.7,0.3-1.1,0.3c-0.6,0-1.1-0.2-1.5-0.6c-0.4-0.4-0.6-0.9-0.7-1.6h5.4
			c0-0.1,0-0.2,0-0.3c0-1.1-0.3-1.9-0.9-2.5c-0.6-0.6-1.4-0.9-2.4-0.9c-1,0-1.8,0.3-2.4,0.9c-0.6,0.6-0.9,1.4-0.9,2.5
			c0,1.1,0.3,1.9,0.9,2.5c0.6,0.6,1.5,0.9,2.5,0.9c0.8,0,1.5-0.2,2.1-0.5c0.5-0.4,0.9-0.9,1.1-1.5l-1.3-0.1
			C110.7,44.5,110.5,44.9,110.2,45.1z"/>
		<path class="st0" d="M117.8,46.2v-8.9h6.7v1.1h-5.4V41h4.7v1.1h-4.7v4.1H117.8z"/>
		<path class="st0" d="M127.5,41.1c0.4-0.4,0.9-0.6,1.5-0.6c0.6,0,1.1,0.2,1.5,0.6c0.4,0.4,0.6,1,0.6,1.8c0,0.8-0.2,1.5-0.6,1.9
			c-0.4,0.4-0.9,0.6-1.5,0.6c-0.6,0-1.1-0.2-1.5-0.6c-0.4-0.4-0.6-1-0.6-1.9C126.9,42.1,127.1,41.5,127.5,41.1z M126.5,45.4
			c0.6,0.6,1.4,0.9,2.4,0.9c0.6,0,1.2-0.1,1.7-0.4c0.5-0.3,0.9-0.6,1.2-1.1c0.3-0.5,0.4-1.1,0.4-2c0-1-0.3-1.8-0.9-2.4
			c-0.6-0.6-1.4-0.9-2.4-0.9c-0.9,0-1.6,0.2-2.3,0.7c-0.7,0.6-1.1,1.5-1.1,2.7C125.6,44,125.9,44.8,126.5,45.4z"/>
		<path class="st0" d="M133.8,46.2v-6.5h1.1v0.9c0.5-0.7,1.3-1.1,2.3-1.1c0.4,0,0.8,0.1,1.2,0.2c0.4,0.1,0.6,0.3,0.8,0.5
			c0.2,0.2,0.3,0.5,0.4,0.8c0,0.2,0.1,0.6,0.1,1.1v4h-1.2v-3.9c0-0.4,0-0.8-0.1-1c-0.1-0.2-0.3-0.4-0.5-0.5
			c-0.2-0.1-0.5-0.2-0.8-0.2c-0.5,0-1,0.1-1.3,0.4c-0.4,0.3-0.6,0.9-0.6,1.7v3.5H133.8z"/>
		<path class="st0" d="M142.9,41c0.4-0.4,0.8-0.6,1.4-0.6c0.6,0,1,0.2,1.4,0.6c0.4,0.4,0.6,1.1,0.6,1.9c0,0.8-0.2,1.4-0.6,1.8
			c-0.4,0.4-0.8,0.6-1.4,0.6c-0.5,0-1-0.2-1.4-0.6c-0.4-0.4-0.6-1-0.6-1.9C142.3,42.1,142.5,41.4,142.9,41z M147.3,46.2v-8.9h-1.2
			v3.2c-0.2-0.3-0.5-0.5-0.8-0.6c-0.3-0.2-0.7-0.2-1.2-0.2c-0.6,0-1.1,0.1-1.6,0.4c-0.5,0.3-0.8,0.7-1.1,1.2
			c-0.2,0.5-0.4,1.1-0.4,1.8c0,0.7,0.1,1.3,0.4,1.8c0.3,0.5,0.6,0.9,1.1,1.2c0.5,0.3,1,0.4,1.6,0.4c0.9,0,1.6-0.3,2-1v0.8H147.3z"/>
		<path class="st0" d="M150.7,41.1c0.4-0.4,0.9-0.6,1.5-0.6c0.6,0,1.1,0.2,1.5,0.6c0.4,0.4,0.6,1,0.6,1.8c0,0.8-0.2,1.5-0.6,1.9
			c-0.4,0.4-0.9,0.6-1.5,0.6c-0.6,0-1.1-0.2-1.5-0.6c-0.4-0.4-0.6-1-0.6-1.9C150,42.1,150.3,41.5,150.7,41.1z M149.7,45.4
			c0.6,0.6,1.4,0.9,2.4,0.9c0.6,0,1.2-0.1,1.7-0.4c0.5-0.3,0.9-0.6,1.2-1.1c0.3-0.5,0.4-1.1,0.4-2c0-1-0.3-1.8-0.9-2.4
			c-0.6-0.6-1.4-0.9-2.4-0.9c-0.9,0-1.6,0.2-2.3,0.7c-0.7,0.6-1.1,1.5-1.1,2.7C148.8,44,149.1,44.8,149.7,45.4z"/>
		<path class="st0" d="M156.5,44.2l1.2-0.2c0.1,0.4,0.3,0.8,0.6,1c0.3,0.2,0.7,0.3,1.3,0.3c0.6,0,1-0.1,1.2-0.3
			c0.3-0.2,0.4-0.4,0.4-0.7c0-0.2-0.1-0.4-0.4-0.6c-0.2-0.1-0.6-0.2-1.2-0.4c-0.9-0.2-1.5-0.4-1.9-0.5c-0.3-0.1-0.6-0.4-0.8-0.6
			c-0.2-0.3-0.3-0.6-0.3-0.9c0-0.3,0.1-0.6,0.2-0.8c0.1-0.2,0.3-0.4,0.6-0.6c0.2-0.1,0.4-0.2,0.8-0.3c0.3-0.1,0.7-0.1,1.1-0.1
			c0.6,0,1.1,0.1,1.5,0.2c0.4,0.1,0.7,0.3,0.9,0.6c0.2,0.2,0.3,0.6,0.4,1l-1.2,0.1c-0.1-0.3-0.2-0.6-0.5-0.8
			c-0.3-0.2-0.6-0.3-1.1-0.3c-0.6,0-1,0.1-1.2,0.2c-0.2,0.2-0.4,0.4-0.4,0.6c0,0.1,0,0.3,0.2,0.4c0.1,0.1,0.3,0.2,0.5,0.3
			c0.1,0,0.5,0.1,1.1,0.3c0.9,0.2,1.5,0.4,1.8,0.5c0.3,0.1,0.6,0.3,0.8,0.6c0.2,0.3,0.3,0.6,0.3,0.9c0,0.4-0.1,0.7-0.4,1
			c-0.2,0.3-0.6,0.6-1,0.7c-0.5,0.2-1,0.3-1.5,0.3c-0.9,0-1.6-0.2-2.1-0.5C156.9,45.4,156.6,44.9,156.5,44.2z"/>
	</g>
</g>
</svg>
